# Blender v2.93.17 OBJ File: 'WaterBalloon.blend'
# www.blender.org
mtllib WaterBalloon.mtl
o WaterBalloon_Icosphere
v 0.016302 -0.573527 0.000928
v 0.543949 -0.188415 0.389433
v -0.170744 -0.235892 0.603573
v -0.625110 -0.225464 -0.021763
v -0.178468 -0.128823 -0.604680
v 0.556731 -0.122339 -0.360312
v 0.217073 0.459993 0.600515
v -0.501507 0.453509 0.361547
v -0.503404 0.470421 -0.391096
v 0.218290 0.487333 -0.618026
v 0.662385 0.476905 -0.006826
v 0.219697 1.806593 -0.091193
v 0.226779 1.482299 -0.073992
v 0.125431 1.482299 0.065499
v -0.038551 1.482299 0.012217
v -0.038551 1.482299 -0.160202
v 0.125431 1.482299 -0.213483
v 0.518290 2.008514 -0.087756
v 0.136124 1.806593 0.023834
v 0.000902 1.806593 -0.020103
v 0.000902 1.806593 -0.162283
v 0.136124 1.806593 -0.206220
v 0.225219 2.008514 0.315616
v -0.248974 2.008514 0.161540
v -0.248974 2.008514 -0.337052
v 0.225219 2.008514 -0.491128
v 0.309981 1.958137 -0.090547
v 0.159291 1.958137 0.116856
v -0.084527 1.958137 0.037635
v -0.084527 1.958137 -0.218730
v 0.159291 1.958137 -0.297951
v 0.090966 1.952255 -0.094963
v -0.094437 -0.503991 0.353233
v 0.327283 -0.467634 0.230628
v 0.216157 -0.268812 0.585999
v 0.645548 -0.202036 0.016985
v 0.333760 -0.420436 -0.208612
v -0.361458 -0.492559 -0.014246
v -0.471471 -0.293737 0.341486
v -0.098314 -0.427544 -0.355017
v -0.478438 -0.227635 -0.369880
v 0.220638 -0.161945 -0.567713
v 0.708901 0.112542 0.231942
v 0.717260 0.142961 -0.212737
v 0.021697 0.074423 0.722046
v 0.442752 0.094002 0.592154
v -0.675344 0.068402 0.207202
v -0.406808 0.067316 0.576802
v -0.413972 0.135178 -0.586880
v -0.677423 0.086942 -0.240160
v 0.452445 0.154394 -0.577178
v 0.017946 0.153718 -0.718928
v 0.505085 0.551707 0.340726
v -0.164569 0.542837 0.555075
v -0.581629 0.543924 -0.018952
v -0.166521 0.564225 -0.583611
v 0.508301 0.564900 -0.363779
v 0.162574 1.046422 -0.395218
v 0.162447 1.043574 0.308034
v 0.418198 1.045336 -0.043391
v -0.251356 1.044660 -0.261511
v -0.251159 1.042899 0.173073
v 0.197651 1.482299 0.011407
v 0.035210 1.482299 0.064186
v -0.065182 1.482299 -0.073992
v 0.035210 1.482299 -0.212171
v 0.197651 1.482299 -0.159392
v 0.154622 1.700021 -0.088480
v 0.048206 1.700021 -0.053904
v 0.113974 1.700021 -0.032534
v 0.113974 1.700021 -0.144426
v 0.048206 1.700021 -0.123056
v 0.195677 1.806593 -0.020771
v 0.061726 1.806593 0.022752
v -0.021059 1.806593 -0.091193
v 0.061726 1.806593 -0.205137
v 0.195677 1.806593 -0.161615
v 0.188766 1.924470 0.193069
v -0.143515 1.924470 -0.264275
v -0.143515 1.924470 0.085103
v 0.394130 1.924470 -0.089586
v 0.188766 1.924470 -0.372241
v 0.434059 2.008514 0.159197
v -0.035676 2.008514 0.311821
v -0.325986 2.008514 -0.087756
v -0.035676 2.008514 -0.487332
v 0.434059 2.008514 -0.334708
v 0.205412 2.000585 0.258972
v -0.202738 2.000585 -0.302797
v -0.202738 2.000585 0.126355
v 0.457666 2.000585 -0.088221
v 0.205412 2.000585 -0.435414
v 0.268654 1.957639 0.037941
v 0.024413 1.957639 0.117299
v -0.126535 1.957639 -0.090463
v 0.024413 1.957639 -0.298224
v 0.268654 1.957639 -0.218867
v 0.123578 1.947067 0.005949
v 0.195763 1.947067 -0.093404
v 0.006782 1.947067 -0.032001
v 0.006782 1.947067 -0.154807
v 0.123578 1.947067 -0.192757
v 0.159366 -0.456315 0.420741
v 0.467984 -0.400445 0.014364
v -0.334474 -0.476577 0.243140
v -0.339845 -0.421864 -0.266240
v 0.162831 -0.367855 -0.405532
v 0.745381 0.010918 0.013793
v 0.244465 -0.045456 0.684674
v -0.559709 -0.066875 0.405259
v -0.565882 -0.010694 -0.430547
v 0.248430 0.045370 -0.670079
v 0.593948 0.231967 0.425041
v -0.203995 0.208182 0.675761
v -0.706424 0.210355 -0.015760
v -0.209668 0.266729 -0.680916
v 0.603284 0.268080 -0.415631
v 0.342028 1.050964 -0.256855
v -0.063739 1.048279 0.300747
v -0.063941 1.050835 -0.388869
v 0.341695 1.049387 0.169431
v -0.314639 1.048486 -0.044586
v 0.142939 1.700021 -0.054229
v 0.037525 1.700021 -0.088480
v 0.142939 1.700021 -0.122731
v 0.077789 1.700021 -0.033060
v 0.077789 1.700021 -0.143899
v 0.005949 1.924470 0.190409
v 0.005949 1.924470 -0.369581
v 0.335107 1.924470 0.083461
v -0.197480 1.924470 -0.089586
v 0.335107 1.924470 -0.262633
v -0.019239 2.000523 0.256004
v -0.019239 2.000523 -0.432425
v 0.385414 2.000523 0.124527
v -0.269326 2.000523 -0.088211
v 0.385414 2.000523 -0.300948
v 0.192630 1.945648 -0.019291
v 0.052760 1.945648 0.026155
v -0.033684 1.945648 -0.092824
v 0.052760 1.945648 -0.211804
v 0.192630 1.945648 -0.166358
vt 0.874813 0.727129
vt 0.879818 0.813923
vt 0.825521 0.833259
vt 0.799791 0.787126
vt 0.121289 0.521567
vt 0.203569 0.555791
vt 0.165424 0.575653
vt 0.101955 0.558631
vt 0.713102 0.820047
vt 0.784366 0.868619
vt 0.289744 0.605281
vt 0.341315 0.528792
vt 0.360851 0.579098
vt 0.340612 0.645118
vt 0.432273 0.479124
vt 0.424610 0.572139
vt 0.430805 0.676575
vt 0.770296 0.729963
vt 0.801915 0.670329
vt 0.706599 0.725251
vt 0.718115 0.621711
vt 0.827468 0.614311
vt 0.879818 0.626777
vt 0.788121 0.564282
vt 0.603980 0.586457
vt 0.526718 0.518714
vt 0.552580 0.478072
vt 0.606952 0.505144
vt 0.494000 0.572653
vt 0.525720 0.635070
vt 0.033959 0.480056
vt 0.035797 0.434184
vt 0.091349 0.437933
vt 0.390318 0.742897
vt 0.335814 0.703213
vt 0.085352 0.323817
vt 0.009129 0.374712
vt 0.785845 0.006851
vt 0.868418 0.000000
vt 0.902307 0.035379
vt 0.865299 0.057795
vt 0.199860 0.480661
vt 0.236845 0.518564
vt 0.269000 0.392705
vt 0.289744 0.490083
vt 0.648668 0.717310
vt 0.634544 0.652166
vt 0.630795 0.769156
vt 0.736452 0.194464
vt 0.651651 0.131921
vt 0.689277 0.073847
vt 0.752507 0.078734
vt 0.417816 0.478072
vt 0.323857 0.455160
vt 0.326787 0.407991
vt 0.385438 0.402300
vt 0.689748 0.552295
vt 0.748101 0.529432
vt 0.383883 0.298428
vt 0.298284 0.357110
vt 0.551612 0.688935
vt 0.504926 0.733881
vt 0.606952 0.681064
vt 0.569730 0.364094
vt 0.591972 0.448532
vt 0.538946 0.471805
vt 0.497223 0.439260
vt 0.156252 0.432317
vt 0.182169 0.346788
vt 0.819486 0.094952
vt 0.924687 0.158792
vt 0.840109 0.185418
vt 0.636601 0.592351
vt 0.683424 0.267890
vt 0.630795 0.194496
vt 0.289744 0.301370
vt 0.350422 0.233826
vt 0.451539 0.395719
vt 0.483656 0.319752
vt 0.454985 0.766906
vt 0.572066 0.770566
vt 0.478595 0.809585
vt 0.000000 0.317462
vt 0.050489 0.254274
vt 0.139015 0.153306
vt 0.166465 0.183820
vt 0.630795 0.334274
vt 0.595335 0.208513
vt 0.630200 0.202087
vt 0.616320 0.086660
vt 0.630274 0.084672
vt 0.217551 0.064121
vt 0.228942 0.075782
vt 0.872624 0.331880
vt 0.816079 0.349481
vt 0.923912 0.328635
vt 0.921753 0.459457
vt 0.901330 0.460115
vt 0.879045 0.467750
vt 0.541694 0.193260
vt 0.489270 0.168643
vt 0.574348 0.070671
vt 0.594863 0.081123
vt 0.218988 0.207879
vt 0.273115 0.221917
vt 0.249627 0.085848
vt 0.271308 0.090750
vt 0.461958 0.138747
vt 0.778331 0.381397
vt 0.863594 0.479910
vt 0.563001 0.059045
vt 0.264806 0.026721
vt 0.273501 0.028688
vt 0.256510 0.022684
vt 0.254808 0.000000
vt 0.271865 0.008300
vt 0.289744 0.012343
vt 0.608367 0.017671
vt 0.612918 0.022334
vt 0.907558 0.524555
vt 0.901361 0.529432
vt 0.126980 0.909854
vt 0.123104 0.918470
vt 0.095118 0.911204
vt 0.103088 0.893489
vt 0.133998 0.904475
vt 0.117517 0.882432
vt 0.251941 0.018007
vt 0.268527 0.796049
vt 0.288867 0.807931
vt 0.262774 0.834853
vt 0.254617 0.830088
vt 0.250889 0.865125
vt 0.234117 0.855327
vt 0.249420 0.823420
vt 0.223431 0.841618
vt 0.916496 0.521493
vt 0.924687 0.521229
vt 0.124171 0.927171
vt 0.129410 0.932763
vt 0.108083 0.940591
vt 0.097312 0.929095
vt 0.621146 0.026526
vt 0.629752 0.028746
vt 0.613878 0.000000
vt 0.630795 0.008619
vt 0.270899 0.835664
vt 0.267594 0.866793
vt 0.045326 0.946898
vt 0.039936 0.902933
vt 0.071793 0.975145
vt 0.045463 1.000000
vt 0.007693 0.959688
vt 0.000000 0.896947
vt 0.279746 0.920177
vt 0.238697 0.916079
vt 0.133214 0.882979
vt 0.094977 0.832231
vt 0.133547 0.833575
vt 0.078548 0.796049
vt 0.133591 0.797967
vt 0.288867 0.958380
vt 0.230287 0.952532
vt 0.123868 0.940591
vt 0.110582 0.975145
vt 0.223584 0.829115
vt 0.171225 0.858315
vt 0.171601 0.827592
vt 0.133998 0.870097
vt 0.134535 0.826253
vt 0.100818 1.000000
vt 0.059520 0.859403
vt 0.027948 0.834826
vt 0.197483 0.892004
vt 0.171471 0.918174
vt 0.104187 0.796049
vt 0.040040 0.773124
vt 0.049478 0.761223
vt 0.104741 0.780891
vt 0.000000 0.718013
vt 0.015064 0.713723
vt 0.052314 0.702197
vt 0.072501 0.731049
vt 0.105885 0.742321
vt 0.172178 0.596704
vt 0.210599 0.652956
vt 0.196406 0.657704
vt 0.163263 0.609309
vt 0.210599 0.721076
vt 0.196332 0.716360
vt 0.160599 0.703772
vt 0.161184 0.668568
vt 0.140844 0.639822
vt 0.001981 0.649921
vt 0.016692 0.655090
vt 0.042020 0.594810
vt 0.051233 0.607679
vt 0.073920 0.638849
vt 0.052712 0.666990
vt 0.168973 0.774999
vt 0.160547 0.762838
vt 0.139540 0.732024
vt 0.107392 0.575653
vt 0.107498 0.591112
vt 0.107521 0.628374
vt 0.076353 0.674609
vt 0.081351 0.693142
vt 0.091700 0.662796
vt 0.107793 0.684928
vt 0.087686 0.711294
vt 0.107013 0.712362
vt 0.126078 0.711853
vt 0.133222 0.693896
vt 0.138473 0.675513
vt 0.123759 0.663262
vt 0.107741 0.652495
vn 0.0576 -0.9937 -0.0958
vn 0.4552 -0.8581 0.2376
vn 0.2115 -0.8196 0.5325
vn -0.1309 -0.8805 0.4555
vn 0.7294 -0.4640 0.5026
vn 0.2742 -0.5542 0.7859
vn -0.2727 -0.4794 0.8341
vn 0.6185 -0.7837 -0.0570
vn 0.8386 -0.5441 -0.0259
vn 0.4374 -0.8192 -0.3708
vn 0.7066 -0.4649 -0.5333
vn -0.4602 -0.8301 0.3146
vn -0.4781 -0.8744 -0.0823
vn -0.6737 -0.5636 0.4781
vn -0.8709 -0.4900 -0.0372
vn -0.4207 -0.7899 -0.4461
vn -0.0854 -0.8158 -0.5720
vn -0.6194 -0.5538 -0.5564
vn -0.2159 -0.4668 -0.8576
vn 0.2176 -0.7529 -0.6211
vn 0.2738 -0.5432 -0.7937
vn 0.9813 -0.1923 -0.0031
vn 0.9462 -0.0107 0.3234
vn 0.9532 -0.0144 -0.3019
vn 0.9414 0.3367 0.0175
vn 0.3003 -0.1970 0.9333
vn -0.0146 -0.0190 0.9997
vn 0.5809 -0.0019 0.8139
vn 0.2739 0.3607 0.8915
vn -0.7908 -0.2229 0.5700
vn -0.9498 -0.0370 0.3105
vn -0.5932 -0.0331 0.8043
vn -0.7562 0.3542 0.5501
vn -0.7570 -0.2188 -0.6157
vn -0.5696 -0.0302 -0.8213
vn -0.9469 -0.0390 -0.3191
vn -0.7645 0.3457 -0.5440
vn 0.3063 -0.2250 -0.9250
vn 0.5856 -0.0420 -0.8095
vn 0.0131 -0.0515 -0.9986
vn 0.2918 0.3103 -0.9047
vn 0.7854 0.1810 0.5919
vn 0.7373 0.3885 0.5527
vn -0.3159 0.1650 0.9343
vn -0.2920 0.4093 0.8644
vn -0.9874 0.1580 0.0090
vn -0.9150 0.4033 0.0110
vn -0.3037 0.1415 -0.9422
vn -0.2903 0.3684 -0.8831
vn 0.8028 0.1574 -0.5751
vn 0.7567 0.3571 -0.5475
vn 0.7507 0.3743 -0.5444
vn 0.9173 0.3981 0.0029
vn 0.2859 0.3845 -0.8777
vn 0.2910 0.3492 -0.8907
vn 0.7621 0.3352 -0.5538
vn 0.9326 0.3610 -0.0015
vn -0.2733 0.4883 0.8287
vn -0.7034 0.4940 0.5110
vn 0.2711 0.4672 0.8416
vn 0.2785 0.4482 0.8494
vn -0.2713 0.4758 0.8367
vn -0.7067 0.4871 0.5130
vn -0.2816 0.4110 -0.8670
vn -0.7218 0.4529 -0.5233
vn -0.7279 0.4320 -0.5324
vn -0.2837 0.3814 -0.8798
vn 0.7280 0.4289 0.5347
vn 0.7426 0.3992 0.5377
vn -0.8771 0.4803 0.0041
vn -0.8846 0.4663 -0.0009
vn 0.8092 -0.0911 0.5803
vn 0.3143 -0.0548 0.9477
vn 0.9921 -0.1254 -0.0047
vn 0.7008 -0.7133 -0.0021
vn 0.5755 -0.7049 0.4145
vn 0.2215 -0.7064 0.6722
vn -0.9994 -0.0342 -0.0041
vn -0.8032 -0.0683 -0.5918
vn -0.8093 -0.0195 0.5870
vn -0.5757 -0.7028 0.4178
vn -0.7150 -0.6991 -0.0020
vn -0.5695 -0.7079 -0.4177
vn 0.8006 -0.1395 -0.5826
vn 0.3095 -0.1337 -0.9414
vn 0.2178 -0.7142 -0.6652
vn 0.5697 -0.7098 -0.4143
vn -0.3061 -0.0259 0.9516
vn -0.2198 -0.6981 0.6814
vn -0.3019 -0.1046 -0.9476
vn -0.2161 -0.7064 -0.6740
vn -0.1694 -0.8346 0.5242
vn -0.4414 -0.8380 0.3208
vn 0.1717 -0.8343 0.5238
vn 0.2900 0.2974 0.9096
vn -0.2983 0.3016 0.9055
vn -0.7736 0.2956 0.5605
vn -0.1718 -0.8286 -0.5328
vn 0.1741 -0.8283 -0.5325
vn -0.4451 -0.8344 -0.3251
vn -0.7747 0.2992 -0.5571
vn -0.2989 0.3077 -0.9033
vn 0.2906 0.3034 -0.9075
vn 0.4537 -0.8285 0.3281
vn 0.5603 -0.8283 -0.0008
vn 0.9532 0.3023 0.0021
vn 0.7677 0.3059 0.5631
vn -0.5508 -0.8346 -0.0006
vn -0.9530 0.3028 0.0019
vn 0.4576 -0.8247 -0.3323
vn 0.7686 0.3097 -0.5597
vn 0.0603 0.9810 -0.1843
vn 0.1571 0.9810 -0.1138
vn -0.0583 0.9817 -0.1812
vn -0.0655 0.9772 -0.2016
vn 0.0646 0.9781 -0.1979
vn 0.1738 0.9767 -0.1255
vn 0.0618 0.9801 0.1885
vn -0.0597 0.9809 0.1853
vn 0.1594 0.9804 0.1153
vn 0.1767 0.9758 0.1289
vn 0.0664 0.9766 0.2044
vn -0.0672 0.9757 0.2083
vn -0.1550 0.9814 -0.1131
vn -0.1907 0.9816 -0.0001
vn -0.2147 0.9767 0.0006
vn -0.1687 0.9780 -0.1223
vn 0.1980 0.9802 -0.0001
vn 0.2122 0.9772 0.0004
vn -0.1573 0.9809 0.1145
vn -0.1717 0.9771 0.1252
vn -0.0437 0.9985 -0.0313
vn -0.0116 0.9993 -0.0358
vn -0.0389 0.9992 0.0002
vn -0.0002 1.0000 -0.0008
vn 0.0168 0.9985 -0.0509
vn 0.0313 0.9992 -0.0225
vn 0.0549 0.9985 0.0006
vn 0.0327 0.9992 0.0239
vn 0.0172 0.9984 0.0532
vn -0.0125 0.9991 0.0387
vn -0.0443 0.9985 0.0329
usemtl Material.001
s 1
f 1/1/1 34/2/2 103/3/3 33/4/4
f 2/5/5 35/6/6 103/7/3 34/8/2
f 3/9/7 33/4/4 103/3/3 35/10/6
f 2/11/5 34/12/2 104/13/8 36/14/9
f 1/15/1 37/16/10 104/13/8 34/12/2
f 6/17/11 36/14/9 104/13/8 37/16/10
f 1/1/1 33/4/4 105/18/12 38/19/13
f 3/9/7 39/20/14 105/18/12 33/4/4
f 4/21/15 38/19/13 105/18/12 39/20/14
f 1/1/1 38/19/13 106/22/16 40/23/17
f 4/21/15 41/24/18 106/22/16 38/19/13
f 5/25/19 40/26/17 106/27/16 41/28/18
f 1/15/1 40/26/17 107/29/20 37/16/10
f 5/25/19 42/30/21 107/29/20 40/26/17
f 6/17/11 37/16/10 107/29/20 42/30/21
f 2/5/5 36/31/9 108/32/22 43/33/23
f 6/17/11 44/34/24 108/35/22 36/14/9
f 11/36/25 43/33/23 108/32/22 44/37/24
f 3/38/7 35/39/6 109/40/26 45/41/27
f 2/5/5 46/42/28 109/43/26 35/6/6
f 7/44/29 45/45/27 109/43/26 46/42/28
f 4/21/15 39/20/14 110/46/30 47/47/31
f 3/9/7 48/48/32 110/46/30 39/20/14
f 8/49/33 47/50/31 110/51/30 48/52/32
f 5/53/19 41/54/18 111/55/34 49/56/35
f 4/21/15 50/57/36 111/58/34 41/24/18
f 9/59/37 49/56/35 111/55/34 50/60/36
f 6/17/11 42/30/21 112/61/38 51/62/39
f 5/25/19 52/63/40 112/61/38 42/30/21
f 10/64/41 51/65/39 112/66/38 52/67/40
f 2/5/5 43/33/23 113/68/42 46/42/28
f 11/36/25 53/69/43 113/68/42 43/33/23
f 7/44/29 46/42/28 113/68/42 53/69/43
f 3/38/7 45/41/27 114/70/44 48/52/32
f 7/71/29 54/72/45 114/70/44 45/41/27
f 8/49/33 48/52/32 114/70/44 54/72/45
f 4/21/15 47/47/31 115/73/46 50/57/36
f 8/49/33 55/74/47 115/75/46 47/50/31
f 9/59/37 50/60/36 115/76/46 55/77/47
f 5/53/19 49/56/35 116/78/48 52/67/40
f 9/59/37 56/79/49 116/78/48 49/56/35
f 10/64/41 52/67/40 116/78/48 56/79/49
f 6/17/11 51/62/39 117/80/50 44/34/24
f 10/81/41 57/82/51 117/80/50 51/62/39
f 11/36/25 44/37/24 117/83/50 57/84/51
f 11/36/25 57/84/51 118/85/52 60/86/53
f 57/87/51 10/64/41 58/88/54 118/89/52
f 118/89/52 58/88/54 17/90/55 67/91/56
f 60/86/53 118/85/52 67/92/56 13/93/57
f 8/49/33 54/72/45 119/94/58 62/95/59
f 54/72/45 7/71/29 59/96/60 119/94/58
f 119/94/58 59/96/60 14/97/61 64/98/62
f 62/95/59 119/94/58 64/98/62 15/99/63
f 10/64/41 56/79/49 120/100/64 58/88/54
f 56/79/49 9/59/37 61/101/65 120/100/64
f 120/100/64 61/101/65 16/102/66 66/103/67
f 58/88/54 120/100/64 66/103/67 17/90/55
f 7/44/29 53/69/43 121/104/68 59/105/60
f 53/69/43 11/36/25 60/86/53 121/104/68
f 121/104/68 60/86/53 13/93/57 63/106/69
f 59/105/60 121/104/68 63/106/69 14/107/61
f 9/59/37 55/77/47 122/108/70 61/101/65
f 55/74/47 8/49/33 62/95/59 122/109/70
f 122/109/70 62/95/59 15/99/63 65/110/71
f 61/101/65 122/108/70 65/111/71 16/102/66
f 14/107/61 63/106/69 123/112/72 70/113/73
f 63/106/69 13/93/57 68/114/74 123/112/72
f 123/112/72 68/114/74 12/115/75 73/116/76
f 70/113/73 123/112/72 73/116/76 19/117/77
f 16/102/66 65/111/71 124/118/78 72/119/79
f 65/110/71 15/99/63 69/120/80 124/121/78
f 124/122/78 69/123/80 20/124/81 75/125/82
f 72/126/79 124/122/78 75/125/82 21/127/83
f 13/93/57 67/92/56 125/128/84 68/114/74
f 67/129/56 17/130/55 71/131/85 125/132/84
f 125/132/84 71/131/85 22/133/86 77/134/87
f 68/135/74 125/132/84 77/134/87 12/136/75
f 15/99/63 64/98/62 126/137/88 69/120/80
f 64/98/62 14/97/61 70/138/73 126/137/88
f 126/139/88 70/140/73 19/141/77 74/142/89
f 69/123/80 126/139/88 74/142/89 20/124/81
f 17/90/55 66/103/67 127/143/90 71/144/85
f 66/103/67 16/102/66 72/119/79 127/143/90
f 127/143/90 72/119/79 21/145/83 76/146/91
f 71/131/85 127/147/90 76/148/91 22/133/86
f 20/124/81 74/142/89 128/149/92 80/150/93
f 74/142/89 19/141/77 78/151/94 128/149/92
f 128/149/92 78/151/94 23/152/95 84/153/96
f 80/150/93 128/149/92 84/153/96 24/154/97
f 22/133/86 76/148/91 129/155/98 82/156/99
f 76/157/91 21/127/83 79/158/100 129/159/98
f 129/159/98 79/158/100 25/160/101 86/161/102
f 82/156/99 129/155/98 86/162/102 26/163/103
f 19/141/77 73/164/76 130/165/104 78/151/94
f 73/166/76 12/136/75 81/167/105 130/168/104
f 130/168/104 81/167/105 18/169/106 83/170/107
f 78/151/94 130/165/104 83/171/107 23/152/95
f 21/127/83 75/125/82 131/172/108 79/158/100
f 75/125/82 20/124/81 80/150/93 131/172/108
f 131/172/108 80/150/93 24/154/97 85/173/109
f 79/158/100 131/172/108 85/173/109 25/160/101
f 12/136/75 77/134/87 132/174/110 81/167/105
f 77/134/87 22/133/86 82/156/99 132/174/110
f 132/174/110 82/156/99 26/163/103 87/175/111
f 81/167/105 132/174/110 87/175/111 18/169/106
f 24/176/97 84/177/96 133/178/112 90/179/113
f 84/177/96 23/180/95 88/181/114 133/178/112
f 133/178/112 88/181/114 28/182/115 94/183/116
f 90/179/113 133/178/112 94/183/116 29/184/117
f 26/185/103 86/186/102 134/187/118 92/188/119
f 86/186/102 25/189/101 89/190/120 134/187/118
f 134/187/118 89/190/120 30/191/121 96/192/122
f 92/188/119 134/187/118 96/192/122 31/193/123
f 23/180/95 83/194/107 135/195/124 88/181/114
f 83/194/107 18/196/106 91/197/125 135/195/124
f 135/195/124 91/197/125 27/198/126 93/199/127
f 88/181/114 135/195/124 93/199/127 28/182/115
f 25/189/101 85/200/109 136/201/128 89/190/120
f 85/200/109 24/176/97 90/179/113 136/201/128
f 136/201/128 90/179/113 29/184/117 95/202/129
f 89/190/120 136/201/128 95/202/129 30/191/121
f 18/196/106 87/203/111 137/204/130 91/197/125
f 87/203/111 26/185/103 92/188/119 137/204/130
f 137/204/130 92/188/119 31/193/123 97/205/131
f 91/197/125 137/204/130 97/205/131 27/198/126
f 28/182/115 93/199/127 138/206/132 98/207/133
f 27/198/126 99/208/134 138/206/132 93/199/127
f 32/209/135 98/207/133 138/206/132 99/208/134
f 29/184/117 94/183/116 139/210/136 100/211/137
f 28/182/115 98/207/133 139/210/136 94/183/116
f 32/209/135 100/211/137 139/210/136 98/207/133
f 30/191/121 95/202/129 140/212/138 101/213/139
f 29/184/117 100/211/137 140/212/138 95/202/129
f 32/209/135 101/213/139 140/212/138 100/211/137
f 31/193/123 96/192/122 141/214/140 102/215/141
f 30/191/121 101/213/139 141/214/140 96/192/122
f 32/209/135 102/215/141 141/214/140 101/213/139
f 27/198/126 97/205/131 142/216/142 99/208/134
f 31/193/123 102/215/141 142/216/142 97/205/131
f 32/209/135 99/208/134 142/216/142 102/215/141
