# Blender v2.93.17 OBJ File: 'shotgunv2.blend'
# www.blender.org
mtllib shotgunv2.mtl
o Barrels_Cylinder
v 0.342991 1.243827 -6.177010
v 0.342991 1.243827 1.118582
v 0.565002 1.151867 -6.177010
v 0.565002 1.151867 1.118582
v 0.656962 0.929856 -6.177010
v 0.656962 0.929856 1.118582
v 0.565002 0.707845 -6.177010
v 0.565002 0.707845 1.118582
v 0.342991 0.615885 -6.177010
v 0.342991 0.615885 1.118582
v 0.120980 0.707845 -6.177010
v 0.120980 0.707845 1.118582
v 0.029020 0.929856 -6.177010
v 0.029020 0.929856 1.118582
v 0.120980 1.151867 -6.177010
v 0.120980 1.151867 1.118582
v 0.461463 1.048328 1.454387
v 0.342991 1.097400 1.454387
v 0.510536 0.929856 1.454387
v 0.461463 0.811384 1.454387
v 0.342991 0.762311 1.454387
v 0.224519 0.811384 1.454387
v 0.175447 0.929856 1.454387
v 0.224519 1.048328 1.454387
v 0.342991 1.243827 -2.314224
v 0.342991 1.243827 -2.744204
v 0.565002 1.151867 -2.744204
v 0.565002 1.151867 -2.314224
v 0.656962 0.929856 -2.744204
v 0.656962 0.929856 -2.314224
v 0.565002 0.707845 -2.744204
v 0.565002 0.707845 -2.314224
v 0.342991 0.615885 -2.744204
v 0.342991 0.615885 -2.314224
v 0.120980 0.707845 -2.744204
v 0.120980 0.707845 -2.314224
v 0.029020 0.929856 -2.744204
v 0.029020 0.929856 -2.314224
v 0.120980 1.151867 -2.744204
v 0.120980 1.151867 -2.314224
v 0.079934 1.192913 -2.744204
v 0.079934 1.192913 -2.314224
v 0.342991 1.301875 -2.314224
v 0.342991 1.301875 -2.744204
v -0.029028 0.929856 -2.744204
v -0.029028 0.929856 -2.314224
v 0.079934 0.666799 -2.744204
v 0.079934 0.666799 -2.314224
v 0.342991 0.557837 -2.744204
v 0.342991 0.557837 -2.314224
v 0.606048 0.666799 -2.744204
v 0.606048 0.666799 -2.314224
v 0.715010 0.929856 -2.744204
v 0.715010 0.929856 -2.314224
v 0.606048 1.192913 -2.744204
v 0.606048 1.192913 -2.314224
v -0.342991 1.243827 -6.177010
v -0.342991 1.243827 1.118582
v -0.565002 1.151867 -6.177010
v -0.565002 1.151867 1.118582
v -0.656962 0.929856 -6.177010
v -0.656962 0.929856 1.118582
v -0.565002 0.707845 -6.177010
v -0.565002 0.707845 1.118582
v -0.342991 0.615885 -6.177010
v -0.342991 0.615885 1.118582
v -0.120980 0.707845 -6.177010
v -0.120980 0.707845 1.118582
v -0.029020 0.929856 -6.177010
v -0.029020 0.929856 1.118582
v -0.120980 1.151867 -6.177010
v -0.120980 1.151867 1.118582
v -0.461463 1.048328 1.454387
v -0.342991 1.097400 1.454387
v -0.510536 0.929856 1.454387
v -0.461463 0.811384 1.454387
v -0.342991 0.762311 1.454387
v -0.224519 0.811384 1.454387
v -0.175447 0.929856 1.454387
v -0.224519 1.048328 1.454387
v -0.342991 1.243827 -2.314224
v -0.342991 1.243827 -2.744204
v -0.565002 1.151867 -2.744204
v -0.565002 1.151867 -2.314224
v -0.656962 0.929856 -2.744204
v -0.656962 0.929856 -2.314224
v -0.565002 0.707845 -2.744204
v -0.565002 0.707845 -2.314224
v -0.342991 0.615885 -2.744204
v -0.342991 0.615885 -2.314224
v -0.120980 0.707845 -2.744204
v -0.120980 0.707845 -2.314224
v -0.029020 0.929856 -2.744204
v -0.029020 0.929856 -2.314224
v -0.120980 1.151867 -2.744204
v -0.120980 1.151867 -2.314224
v -0.079934 1.192913 -2.744204
v -0.079934 1.192913 -2.314224
v -0.342991 1.301875 -2.314224
v -0.342991 1.301875 -2.744204
v 0.029028 0.929856 -2.744204
v 0.029028 0.929856 -2.314224
v -0.079934 0.666799 -2.744204
v -0.079934 0.666799 -2.314224
v -0.342991 0.557837 -2.744204
v -0.342991 0.557837 -2.314224
v -0.606048 0.666799 -2.744204
v -0.606048 0.666799 -2.314224
v -0.715010 0.929856 -2.744204
v -0.715010 0.929856 -2.314224
v -0.606048 1.192913 -2.744204
v -0.606048 1.192913 -2.314224
vt 0.125000 0.650000
vt 0.125000 0.814686
vt 0.000000 0.814686
vt 0.000000 0.650000
vt 0.750000 0.650000
vt 0.750000 0.814686
vt 0.625000 0.814686
vt 0.625000 0.650000
vt 0.500000 0.814686
vt 0.500000 0.650000
vt 0.375000 0.814686
vt 0.375000 0.650000
vt 0.250000 0.814686
vt 0.250000 0.650000
vt 0.625000 1.000000
vt 0.750000 1.000000
vt 0.750000 1.000000
vt 0.625000 1.000000
vt 1.000000 0.650000
vt 1.000000 0.814686
vt 0.875000 0.814686
vt 0.875000 0.650000
vt 0.750000 0.490000
vt 0.919706 0.419706
vt 0.990000 0.250000
vt 0.919706 0.080294
vt 0.750000 0.010000
vt 0.580294 0.080294
vt 0.510000 0.250000
vt 0.580294 0.419706
vt 0.419706 0.419706
vt 0.250000 0.490000
vt 0.080294 0.419706
vt 0.010000 0.250000
vt 0.080294 0.080294
vt 0.250000 0.010000
vt 0.419706 0.080294
vt 0.490000 0.250000
vt 0.250000 1.000000
vt 0.375000 1.000000
vt 0.375000 1.000000
vt 0.250000 1.000000
vt 0.500000 1.000000
vt 0.500000 1.000000
vt 0.125000 1.000000
vt 0.125000 1.000000
vt 0.875000 1.000000
vt 0.875000 1.000000
vt 0.000000 1.000000
vt 0.000000 1.000000
vt 1.000000 1.000000
vt 1.000000 1.000000
vt 0.250000 0.835314
vt 0.125000 0.835314
vt 0.375000 0.835314
vt 0.500000 0.835314
vt 0.625000 0.835314
vt 0.750000 0.835314
vt 0.875000 0.835314
vt 1.000000 0.835314
vt 0.375000 0.835314
vt 0.500000 0.835314
vt 0.750000 0.814686
vt 0.625000 0.814686
vt 0.125000 0.814686
vt 0.000000 0.814686
vt 0.625000 0.835314
vt 0.750000 0.835314
vt 0.375000 0.814686
vt 0.250000 0.814686
vt 0.000000 0.835314
vt 0.000000 0.835314
vt 0.125000 0.835314
vt 1.000000 0.814686
vt 0.875000 0.814686
vt 0.250000 0.835314
vt 0.500000 0.814686
vt 0.875000 0.835314
vt 1.000000 0.835314
vt 0.125000 0.650000
vt 0.000000 0.650000
vt 0.000000 0.814686
vt 0.125000 0.814686
vt 0.750000 0.650000
vt 0.625000 0.650000
vt 0.625000 0.814686
vt 0.750000 0.814686
vt 0.500000 0.650000
vt 0.500000 0.814686
vt 0.375000 0.650000
vt 0.375000 0.814686
vt 0.250000 0.650000
vt 0.250000 0.814686
vt 0.625000 1.000000
vt 0.625000 1.000000
vt 0.750000 1.000000
vt 0.750000 1.000000
vt 1.000000 0.650000
vt 0.875000 0.650000
vt 0.875000 0.814686
vt 1.000000 0.814686
vt 0.750000 0.490000
vt 0.580294 0.419706
vt 0.510000 0.250000
vt 0.580294 0.080294
vt 0.750000 0.010000
vt 0.919706 0.080294
vt 0.990000 0.250000
vt 0.919706 0.419706
vt 0.419706 0.419706
vt 0.490000 0.250000
vt 0.419706 0.080294
vt 0.250000 0.010000
vt 0.080294 0.080294
vt 0.010000 0.250000
vt 0.080294 0.419706
vt 0.250000 0.490000
vt 0.250000 1.000000
vt 0.250000 1.000000
vt 0.375000 1.000000
vt 0.375000 1.000000
vt 0.500000 1.000000
vt 0.500000 1.000000
vt 0.125000 1.000000
vt 0.125000 1.000000
vt 0.875000 1.000000
vt 0.875000 1.000000
vt 0.000000 1.000000
vt 0.000000 1.000000
vt 1.000000 1.000000
vt 1.000000 1.000000
vt 0.250000 0.835314
vt 0.125000 0.835314
vt 0.375000 0.835314
vt 0.500000 0.835314
vt 0.625000 0.835314
vt 0.750000 0.835314
vt 0.875000 0.835314
vt 1.000000 0.835314
vt 0.500000 0.835314
vt 0.375000 0.835314
vt 0.625000 0.814686
vt 0.750000 0.814686
vt 0.000000 0.814686
vt 0.125000 0.814686
vt 0.750000 0.835314
vt 0.625000 0.835314
vt 0.250000 0.814686
vt 0.375000 0.814686
vt 0.125000 0.835314
vt 0.000000 0.835314
vt 0.000000 0.835314
vt 0.875000 0.814686
vt 1.000000 0.814686
vt 0.250000 0.835314
vt 0.500000 0.814686
vt 0.875000 0.835314
vt 1.000000 0.835314
vn -0.3827 0.9239 0.0000
vn 0.9239 -0.3827 -0.0000
vn 0.3827 -0.9239 -0.0000
vn -0.3827 -0.9239 -0.0000
vn -0.9239 -0.3827 -0.0000
vn -0.9239 0.3827 0.0000
vn 0.8570 -0.3550 0.3737
vn 0.3827 0.9239 0.0000
vn 0.0000 0.0000 -1.0000
vn 0.0000 0.0000 1.0000
vn -0.8570 -0.3550 0.3737
vn 0.3550 -0.8570 0.3737
vn -0.8570 0.3550 0.3737
vn 0.8570 0.3550 0.3737
vn -0.3550 -0.8570 0.3737
vn -0.3550 0.8570 0.3737
vn 0.3550 0.8570 0.3737
vn 0.9239 0.3827 0.0000
usemtl None
s off
f 15/1/1 39/2/1 26/3/1 1/4/1
f 5/5/2 29/6/2 31/7/2 7/8/2
f 7/8/3 31/7/3 33/9/3 9/10/3
f 9/10/4 33/9/4 35/11/4 11/12/4
f 11/12/5 35/11/5 37/13/5 13/14/5
f 13/14/6 37/13/6 39/2/6 15/1/6
f 8/15/7 6/16/7 19/17/7 20/18/7
f 1/19/8 26/20/8 27/21/8 3/22/8
f 1/23/9 3/24/9 5/25/9 7/26/9 9/27/9 11/28/9 13/29/9 15/30/9
f 17/31/10 18/32/10 24/33/10 23/34/10 22/35/10 21/36/10 20/37/10 19/38/10
f 14/39/11 12/40/11 22/41/11 23/42/11
f 10/43/12 8/15/12 20/18/12 21/44/12
f 16/45/13 14/39/13 23/42/13 24/46/13
f 6/16/14 4/47/14 17/48/14 19/17/14
f 12/40/15 10/43/15 21/44/15 22/41/15
f 2/49/16 16/45/16 24/46/16 18/50/16
f 4/47/17 2/51/17 18/52/17 17/48/17
f 3/22/18 27/21/18 29/6/18 5/5/18
f 38/53/6 14/39/6 16/45/6 40/54/6
f 36/55/5 12/40/5 14/39/5 38/53/5
f 34/56/4 10/43/4 12/40/4 36/55/4
f 32/57/3 8/15/3 10/43/3 34/56/3
f 30/58/2 6/16/2 8/15/2 32/57/2
f 28/59/18 4/47/18 6/16/18 30/58/18
f 25/60/8 2/51/8 4/47/8 28/59/8
f 34/56/10 36/55/10 48/61/10 50/62/10
f 31/7/9 29/6/9 53/63/9 51/64/9
f 26/3/9 39/2/9 41/65/9 44/66/9
f 30/58/10 32/57/10 52/67/10 54/68/10
f 37/13/9 35/11/9 47/69/9 45/70/9
f 40/54/10 25/71/10 43/72/10 42/73/10
f 27/21/9 26/20/9 44/74/9 55/75/9
f 36/55/10 38/53/10 46/76/10 48/61/10
f 40/54/1 16/45/1 2/49/1 25/71/1
f 42/73/1 43/72/1 44/66/1 41/65/1
f 46/76/6 42/73/6 41/65/6 45/70/6
f 48/61/5 46/76/5 45/70/5 47/69/5
f 50/62/4 48/61/4 47/69/4 49/77/4
f 52/67/3 50/62/3 49/77/3 51/64/3
f 54/68/2 52/67/2 51/64/2 53/63/2
f 56/78/18 54/68/18 53/63/18 55/75/18
f 43/79/8 56/78/8 55/75/8 44/74/8
f 35/11/9 33/9/9 49/77/9 47/69/9
f 38/53/10 40/54/10 42/73/10 46/76/10
f 28/59/10 30/58/10 54/68/10 56/78/10
f 39/2/9 37/13/9 45/70/9 41/65/9
f 29/6/9 27/21/9 55/75/9 53/63/9
f 32/57/10 34/56/10 50/62/10 52/67/10
f 25/60/10 28/59/10 56/78/10 43/79/10
f 33/9/9 31/7/9 51/64/9 49/77/9
f 71/80/8 57/81/8 82/82/8 95/83/8
f 61/84/5 63/85/5 87/86/5 85/87/5
f 63/85/4 65/88/4 89/89/4 87/86/4
f 65/88/3 67/90/3 91/91/3 89/89/3
f 67/90/2 69/92/2 93/93/2 91/91/2
f 69/92/18 71/80/18 95/83/18 93/93/18
f 64/94/11 76/95/11 75/96/11 62/97/11
f 57/98/1 59/99/1 83/100/1 82/101/1
f 57/102/9 71/103/9 69/104/9 67/105/9 65/106/9 63/107/9 61/108/9 59/109/9
f 73/110/10 75/111/10 76/112/10 77/113/10 78/114/10 79/115/10 80/116/10 74/117/10
f 70/118/7 79/119/7 78/120/7 68/121/7
f 66/122/15 77/123/15 76/95/15 64/94/15
f 72/124/14 80/125/14 79/119/14 70/118/14
f 62/97/13 75/96/13 73/126/13 60/127/13
f 68/121/12 78/120/12 77/123/12 66/122/12
f 58/128/17 74/129/17 80/125/17 72/124/17
f 60/127/16 73/126/16 74/130/16 58/131/16
f 59/99/6 61/84/6 85/87/6 83/100/6
f 94/132/18 96/133/18 72/124/18 70/118/18
f 92/134/2 94/132/2 70/118/2 68/121/2
f 90/135/3 92/134/3 68/121/3 66/122/3
f 88/136/4 90/135/4 66/122/4 64/94/4
f 86/137/5 88/136/5 64/94/5 62/97/5
f 84/138/6 86/137/6 62/97/6 60/127/6
f 81/139/1 84/138/1 60/127/1 58/131/1
f 90/135/10 106/140/10 104/141/10 92/134/10
f 87/86/9 107/142/9 109/143/9 85/87/9
f 82/82/9 100/144/9 97/145/9 95/83/9
f 86/137/10 110/146/10 108/147/10 88/136/10
f 93/93/9 101/148/9 103/149/9 91/91/9
f 96/133/10 98/150/10 99/151/10 81/152/10
f 83/100/9 111/153/9 100/154/9 82/101/9
f 92/134/10 104/141/10 102/155/10 94/132/10
f 96/133/8 81/152/8 58/128/8 72/124/8
f 98/150/8 97/145/8 100/144/8 99/151/8
f 102/155/18 101/148/18 97/145/18 98/150/18
f 104/141/2 103/149/2 101/148/2 102/155/2
f 106/140/3 105/156/3 103/149/3 104/141/3
f 108/147/4 107/142/4 105/156/4 106/140/4
f 110/146/5 109/143/5 107/142/5 108/147/5
f 112/157/6 111/153/6 109/143/6 110/146/6
f 99/158/1 100/154/1 111/153/1 112/157/1
f 91/91/9 103/149/9 105/156/9 89/89/9
f 94/132/10 102/155/10 98/150/10 96/133/10
f 84/138/10 112/157/10 110/146/10 86/137/10
f 95/83/9 97/145/9 101/148/9 93/93/9
f 85/87/9 109/143/9 111/153/9 83/100/9
f 88/136/10 108/147/10 106/140/10 90/135/10
f 81/139/10 99/158/10 112/157/10 84/138/10
f 89/89/9 105/156/9 107/142/9 87/86/9
o Grip_Cube.001
v -0.355860 -0.054795 1.037386
v -0.173451 1.014300 0.883790
v -0.276922 0.154151 -4.507005
v -0.276922 0.662821 -4.924411
v 0.355860 -0.054795 1.037386
v 0.173451 1.014300 0.883790
v 0.276922 0.154151 -4.507005
v 0.276922 0.662821 -4.924411
v -0.276922 -0.139902 -0.667418
v -0.276922 0.647070 -0.750463
v 0.276922 -0.139902 -0.667418
v 0.276922 0.647070 -0.750463
v -0.276922 0.646885 -2.747240
v 0.276922 0.003673 -2.777138
v -0.276922 0.003673 -2.777138
v 0.276922 0.646885 -2.747240
v -0.276922 -0.065803 2.176626
v -0.134976 1.056903 2.089995
v 0.134976 1.056903 2.089995
v 0.276922 -0.065803 2.176626
v -0.276922 -0.540121 3.600054
v -0.276922 0.747972 3.663059
v 0.276922 0.747972 3.663059
v 0.276922 -0.540121 3.600054
v -0.276922 -1.273013 4.807750
v -0.276922 0.361606 6.107220
v 0.276922 0.361606 6.107220
v 0.276922 -1.273013 4.807750
v -0.276922 -1.464558 6.173557
v -0.276922 -0.570244 6.756350
v 0.276922 -0.570244 6.756350
v 0.276922 -1.464558 6.173557
vt 0.375000 0.187420
vt 0.625000 0.187420
vt 0.625000 0.250000
vt 0.375000 0.250000
vt 0.625000 0.500000
vt 0.375000 0.500000
vt 0.375000 0.622290
vt 0.625000 0.622290
vt 0.625000 0.750000
vt 0.375000 0.750000
vt 0.625000 0.750000
vt 0.375000 0.750000
vt 0.125000 0.622290
vt 0.125000 0.750000
vt 0.875000 0.622290
vt 0.875000 0.750000
vt 0.625000 0.562580
vt 0.875000 0.562580
vt 0.125000 0.562580
vt 0.375000 0.562580
vt 0.375000 0.000000
vt 0.625000 0.000000
vt 0.625000 0.127710
vt 0.375000 0.127710
vt 0.125000 0.500000
vt 0.875000 0.500000
vt 0.125000 0.750000
vt 0.375000 0.750000
vt 0.125000 0.750000
vt 0.375000 0.000000
vt 0.625000 0.000000
vt 0.875000 0.750000
vt 0.625000 0.750000
vt 0.875000 0.750000
vt 0.875000 0.750000
vt 0.625000 0.750000
vt 0.375000 0.000000
vt 0.625000 0.000000
vt 0.125000 0.750000
vt 0.375000 0.750000
vt 0.375000 0.750000
vt 0.125000 0.750000
vt 0.375000 0.000000
vt 0.625000 0.000000
vt 0.625000 0.750000
vt 0.625000 1.000000
vt 0.375000 1.000000
vt 0.375000 0.000000
vt 0.625000 0.000000
vt 0.875000 0.750000
vn -1.0000 -0.0000 0.0000
vn 0.0000 -0.6343 -0.7730
vn 0.9953 0.0971 -0.0058
vn 0.9874 0.1513 0.0474
vn 0.0000 -0.9988 0.0499
vn 0.0000 0.9757 -0.2192
vn 0.0000 1.0000 -0.0001
vn 0.0000 -0.9977 -0.0679
vn 1.0000 -0.0000 0.0000
vn -0.9953 0.0971 -0.0058
vn 0.0000 -0.9962 -0.0867
vn 0.0000 1.0000 0.0073
vn 0.0000 -0.9487 -0.3161
vn -0.9874 0.1513 0.0474
vn 0.0000 -1.0000 -0.0097
vn 0.0000 0.9994 -0.0353
vn 0.0000 0.9877 0.1561
vn -0.9978 0.0584 -0.0320
vn 0.0000 0.9813 0.1927
vn 0.9978 0.0584 -0.0320
vn 0.0000 -0.9903 -0.1389
vn 0.0000 -0.8549 -0.5188
vn 0.0000 -0.5460 0.8378
vn 0.0000 0.5716 0.8205
usemtl None
s off
f 127/159/19 125/160/19 116/161/19 115/162/19
f 115/162/20 116/161/20 120/163/20 119/164/20
f 123/165/21 124/166/21 118/167/21 117/168/21
f 117/168/22 118/167/22 131/169/22 132/170/22
f 121/171/23 123/165/23 117/168/23 113/172/23
f 124/166/24 122/173/24 114/174/24 118/167/24
f 128/175/25 125/176/25 122/173/25 124/166/25
f 127/177/26 126/178/26 123/165/26 121/171/26
f 126/178/27 128/175/27 124/166/27 123/165/27
f 113/179/28 114/180/28 122/181/28 121/182/28
f 119/164/27 120/163/27 128/175/27 126/178/27
f 115/183/29 119/164/29 126/178/29 127/177/29
f 120/163/30 116/184/30 125/176/30 128/175/30
f 121/182/19 122/181/19 125/160/19 127/159/19
f 129/185/31 132/170/31 136/186/31 133/187/31
f 114/180/32 113/179/32 129/188/32 130/189/32
f 113/172/33 117/168/33 132/170/33 129/185/33
f 118/167/34 114/174/34 130/190/34 131/169/34
f 135/191/35 134/192/35 138/193/35 139/194/35
f 130/189/36 129/188/36 133/195/36 134/196/36
f 131/169/37 130/190/37 134/192/37 135/191/37
f 132/170/38 131/169/38 135/191/38 136/186/38
f 137/197/39 140/198/39 144/199/39 141/200/39
f 136/186/27 135/191/27 139/194/27 140/198/27
f 133/187/40 136/186/40 140/198/40 137/197/40
f 134/196/19 133/195/19 137/201/19 138/202/19
f 144/199/41 143/203/41 142/204/41 141/205/41
f 138/202/19 137/201/19 141/206/19 142/207/19
f 139/194/42 138/193/42 142/208/42 143/203/42
f 140/198/27 139/194/27 143/203/27 144/199/27
o ActionRelease_Cube.002
v 0.445476 0.480751 1.763471
v 0.367291 1.503634 1.793676
v 0.444432 0.467386 1.668395
v 0.372779 1.470138 1.710925
v 0.414404 0.793845 1.624115
v 0.407883 0.778628 1.735460
v 0.386450 0.933963 1.651636
v 0.380768 0.927693 1.758633
v 0.382076 0.953690 1.482627
v 0.396650 0.848532 1.457409
v 0.375674 1.179287 1.716319
v 0.379120 1.210648 1.833468
v 0.233344 0.471878 1.765493
v 0.226401 1.497741 1.795019
v 0.233691 0.458570 1.670404
v 0.222155 1.463837 1.712361
v 0.235505 0.786362 1.625821
v 0.245391 0.771831 1.737009
v 0.252180 0.928347 1.652916
v 0.260401 0.922658 1.759781
v 0.251674 0.948236 1.483870
v 0.245454 0.842208 1.458851
v 0.243661 1.173765 1.717577
v 0.239838 1.204822 1.834796
v 0.339237 0.458851 1.669752
v 0.297405 1.467968 1.709442
v 0.339506 0.474278 1.765631
v 0.296785 1.501649 1.792132
v 0.326559 0.776515 1.733707
v 0.324869 0.791536 1.622240
v 0.320512 0.926179 1.756033
v 0.319236 0.932285 1.648940
v 0.321162 0.842139 1.455413
v 0.316929 0.949302 1.481606
v 0.309436 1.209108 1.835611
v 0.309623 1.177945 1.718464
vt 0.567903 0.375000
vt 0.625000 0.375000
vt 0.625000 0.500000
vt 0.567903 0.500000
vt 0.625000 0.750000
vt 0.567903 0.750000
vt 0.250000 0.500000
vt 0.375000 0.500000
vt 0.375000 0.750000
vt 0.250000 0.750000
vt 0.464159 0.500000
vt 0.464159 0.750000
vt 0.375000 0.375000
vt 0.464159 0.375000
vt 0.516208 0.500000
vt 0.516208 0.750000
vt 0.464159 0.500000
vt 0.516208 0.500000
vt 0.464159 0.375000
vt 0.516208 0.375000
vt 0.516208 0.375000
vt 0.567903 0.875000
vt 0.516208 0.875000
vt 0.464159 0.875000
vt 0.375000 0.875000
vt 0.750000 0.500000
vt 0.750000 0.750000
vt 0.625000 0.875000
vt 0.567903 0.500000
vt 0.625000 0.500000
vt 0.567903 0.750000
vt 0.625000 0.750000
vt 0.375000 0.750000
vt 0.375000 0.500000
vt 0.464159 0.750000
vt 0.464159 0.500000
vt 0.516208 0.750000
vt 0.516208 0.500000
vt 0.516208 0.500000
vt 0.464159 0.500000
vn -0.0041 -0.0249 -0.9997
vn 0.9997 0.0254 0.0020
vn 0.0726 -0.9863 0.1482
vn 0.9935 0.1108 0.0274
vn 0.0103 -0.1372 -0.9905
vn 0.9820 0.1744 0.0720
vn 0.9840 0.1762 -0.0258
vn 0.0028 0.2356 -0.9719
vn -0.0486 0.9928 0.1094
vn 0.9997 0.0215 0.0076
vn -0.0020 0.2636 -0.9646
vn 0.0028 -0.2632 0.9647
vn 0.0573 -0.9510 -0.3039
vn -0.0264 -0.1534 0.9878
vn -0.0024 0.0992 0.9951
vn -0.0186 0.9261 -0.3767
vn 0.0007 0.1408 0.9900
vn -0.0129 -0.0253 -0.9996
vn -0.9981 -0.0582 0.0210
vn 0.0129 -0.9888 0.1488
vn -0.9985 0.0274 0.0463
vn -0.0176 -0.1384 -0.9902
vn -0.9916 0.0918 0.0909
vn -0.9956 0.0934 -0.0069
vn -0.0409 0.2337 -0.9714
vn -0.0324 0.9935 0.1093
vn -0.9977 -0.0620 0.0266
vn -0.0384 0.2621 -0.9643
vn 0.0376 -0.2617 0.9644
vn 0.0166 -0.9527 -0.3035
vn 0.0579 -0.1499 0.9870
vn 0.0130 0.0998 0.9949
vn -0.0660 0.9241 -0.3763
vn 0.0064 0.1411 0.9900
usemtl None
s off
f 180/209/43 170/210/43 148/211/43 155/212/43
f 155/212/44 148/211/44 146/213/44 156/214/44
f 169/215/45 147/216/45 145/217/45 171/218/45
f 147/216/46 149/219/46 150/220/46 145/217/46
f 169/221/47 174/222/47 149/219/47 147/216/47
f 149/219/48 151/223/48 152/224/48 150/220/48
f 151/223/49 149/219/49 154/225/49 153/226/49
f 177/227/50 178/228/50 153/226/50 154/225/50
f 176/229/51 151/223/51 153/226/51 178/228/51
f 151/223/52 155/212/52 156/214/52 152/224/52
f 176/229/53 180/209/53 155/212/53 151/223/53
f 152/224/54 156/214/54 179/230/54 175/231/54
f 149/219/55 174/222/55 177/227/55 154/225/55
f 150/220/56 152/224/56 175/231/56 173/232/56
f 145/217/57 150/220/57 173/232/57 171/233/57
f 148/211/58 170/234/58 172/235/58 146/213/58
f 156/214/59 146/213/59 172/236/59 179/230/59
f 180/209/60 167/237/60 160/238/60 170/210/60
f 167/237/61 168/239/61 158/240/61 160/238/61
f 169/215/62 171/218/62 157/241/62 159/242/62
f 159/242/63 157/241/63 162/243/63 161/244/63
f 169/221/64 159/242/64 161/244/64 174/222/64
f 161/244/65 162/243/65 164/245/65 163/246/65
f 163/246/66 165/247/66 166/248/66 161/244/66
f 177/227/67 166/248/67 165/247/67 178/228/67
f 176/229/68 178/228/68 165/247/68 163/246/68
f 163/246/69 164/245/69 168/239/69 167/237/69
f 176/229/70 163/246/70 167/237/70 180/209/70
f 164/245/71 175/231/71 179/230/71 168/239/71
f 161/244/72 166/248/72 177/227/72 174/222/72
f 162/243/73 173/232/73 175/231/73 164/245/73
f 157/241/74 171/233/74 173/232/74 162/243/74
f 160/238/75 158/240/75 172/235/75 170/234/75
f 168/239/76 179/230/76 172/236/76 158/240/76
o TriggerGuard_Cube.003
v 0.062364 -0.264300 1.376065
v 0.062364 -0.031193 1.376065
v 0.062364 -0.264300 1.142958
v 0.062364 -0.031193 1.142958
v 0.295472 -0.264300 1.376065
v 0.295472 -0.031193 1.376065
v 0.295472 -0.264300 1.142958
v 0.295472 -0.031193 1.142958
v 0.062364 -0.900910 1.444856
v 0.062364 -0.717146 1.579518
v 0.295472 -0.900910 1.444856
v 0.295472 -0.717146 1.579518
v 0.062364 -1.143740 2.284918
v 0.062364 -0.959977 2.314573
v 0.295472 -1.143740 2.284918
v 0.295472 -0.959977 2.314573
v 0.062364 -1.089430 2.945519
v 0.062364 -0.899103 2.857040
v 0.295472 -1.089430 2.945519
v 0.295472 -0.899103 2.857040
v 0.062364 -0.455110 3.415256
v 0.062364 -0.382917 3.228331
v 0.295472 -0.455110 3.415256
v 0.295472 -0.382917 3.228331
vt 0.375000 0.000000
vt 0.625000 0.000000
vt 0.625000 0.250000
vt 0.375000 0.250000
vt 0.625000 0.500000
vt 0.375000 0.500000
vt 0.625000 0.750000
vt 0.375000 0.750000
vt 0.625000 1.000000
vt 0.375000 1.000000
vt 0.375000 0.500000
vt 0.375000 0.250000
vt 0.875000 0.500000
vt 0.875000 0.750000
vt 0.375000 0.750000
vt 0.375000 1.000000
vt 0.375000 1.000000
vt 0.375000 0.750000
vt 0.375000 0.000000
vt 0.375000 1.000000
vt 0.375000 0.750000
vt 0.375000 0.500000
vt 0.375000 0.250000
vt 0.375000 0.000000
vt 0.375000 0.500000
vt 0.375000 0.750000
vt 0.375000 0.500000
vt 0.375000 0.250000
vt 0.375000 0.000000
vt 0.125000 0.500000
vt 0.125000 0.750000
vt 0.375000 0.250000
vt 0.375000 0.000000
vt 0.375000 1.000000
vn -1.0000 0.0000 0.0000
vn 0.0000 0.0000 -1.0000
vn 1.0000 0.0000 0.0000
vn 0.0000 0.0000 1.0000
vn 0.0000 -0.4285 -0.9035
vn 0.0000 1.0000 0.0000
vn 0.0000 0.9495 0.3137
vn 0.0000 0.4098 0.9122
vn 0.0000 0.9938 -0.1115
vn 0.0000 -0.9607 -0.2777
vn 0.0000 -0.9966 0.0819
vn 0.0000 0.9328 0.3603
vn 0.0000 0.5839 -0.8118
vn 0.0000 -0.5951 0.8036
usemtl None
s off
f 181/249/77 182/250/77 184/251/77 183/252/77
f 183/252/78 184/251/78 188/253/78 187/254/78
f 187/254/79 188/253/79 186/255/79 185/256/79
f 185/256/80 186/255/80 182/257/80 181/258/80
f 183/252/81 187/254/81 191/259/81 189/260/81
f 188/253/82 184/261/82 182/262/82 186/255/82
f 192/263/83 190/264/83 194/265/83 196/266/83
f 181/249/77 183/252/77 189/260/77 190/267/77
f 187/254/79 185/256/79 192/263/79 191/259/79
f 185/256/84 181/258/84 190/264/84 192/263/84
f 196/266/85 194/265/85 198/268/85 200/269/85
f 189/260/86 191/259/86 195/270/86 193/271/86
f 191/259/79 192/263/79 196/266/79 195/270/79
f 190/267/77 189/260/77 193/271/77 194/272/77
f 199/273/79 200/269/79 204/274/79 203/275/79
f 193/271/87 195/270/87 199/273/87 197/276/87
f 195/270/79 196/266/79 200/269/79 199/273/79
f 194/272/77 193/271/77 197/276/77 198/277/77
f 201/278/88 203/275/88 204/274/88 202/279/88
f 198/277/77 197/276/77 201/280/77 202/281/77
f 200/269/89 198/268/89 202/282/89 204/274/89
f 197/276/90 199/273/90 203/275/90 201/280/90
o Cube_Cube.004
v -0.001095 -0.395908 2.747124
v -0.001095 -0.164056 2.781790
v -0.001095 -0.274626 2.423223
v -0.001095 -0.074498 2.390316
v 0.122136 -0.395908 2.747124
v 0.122136 -0.164056 2.781790
v 0.122136 -0.274626 2.423223
v 0.122136 -0.074498 2.390316
v -0.001095 -0.515109 2.407316
v -0.001095 -0.630314 2.604978
v 0.122136 -0.515109 2.407316
v 0.122136 -0.630314 2.604978
v -0.001095 -0.793104 2.318829
v -0.001095 -0.775774 2.432771
v 0.122136 -0.793104 2.318829
v 0.122136 -0.775774 2.432771
vt 0.375000 0.000000
vt 0.625000 0.000000
vt 0.625000 0.250000
vt 0.375000 0.250000
vt 0.625000 0.500000
vt 0.375000 0.500000
vt 0.625000 0.750000
vt 0.375000 0.750000
vt 0.625000 1.000000
vt 0.375000 1.000000
vt 0.375000 0.750000
vt 0.375000 0.500000
vt 0.875000 0.500000
vt 0.875000 0.750000
vt 0.375000 0.000000
vt 0.375000 0.250000
vt 0.375000 0.250000
vt 0.375000 0.000000
vt 0.375000 1.000000
vt 0.125000 0.500000
vt 0.375000 0.500000
vt 0.375000 0.750000
vt 0.125000 0.750000
vt 0.375000 1.000000
vn -1.0000 -0.0000 0.0000
vn 0.0000 -0.1623 -0.9867
vn 1.0000 0.0000 0.0000
vn 0.0000 -0.1479 0.9890
vn 0.0000 0.9748 0.2230
vn 0.0000 -0.5185 0.8551
vn 0.0000 0.0660 -0.9978
vn 0.0000 -0.9886 0.1504
vn 0.0000 -0.7639 0.6453
vn 0.0000 0.3033 -0.9529
usemtl None
s off
f 205/283/91 206/284/91 208/285/91 207/286/91
f 207/286/92 208/285/92 212/287/92 211/288/92
f 211/288/93 212/287/93 210/289/93 209/290/93
f 209/290/94 210/289/94 206/291/94 205/292/94
f 211/288/93 209/290/93 216/293/93 215/294/93
f 212/287/95 208/295/95 206/296/95 210/289/95
f 214/297/91 213/298/91 217/299/91 218/300/91
f 209/290/96 205/292/96 214/301/96 216/293/96
f 207/286/97 211/288/97 215/294/97 213/298/97
f 205/283/91 207/286/91 213/298/91 214/297/91
f 217/302/98 219/303/98 220/304/98 218/305/98
f 216/293/99 214/301/99 218/306/99 220/304/99
f 213/298/100 215/294/100 219/303/100 217/299/100
f 215/294/93 216/293/93 220/304/93 219/303/93
