# Blender v2.93.17 OBJ File: 'spear.blend'
# www.blender.org
mtllib spear.mtl
o spear_Cube
v 0.171502 0.170789 -6.359173
v 0.171502 -0.170789 -6.359173
v 0.153190 0.170789 6.359173
v 0.153190 -0.170789 6.359173
v -0.171502 0.170789 -6.359173
v -0.171502 -0.170789 -6.359173
v -0.153190 0.170789 6.359173
v -0.153190 -0.170789 6.359173
v 0.283931 -0.262010 -6.447224
v -0.283931 -0.262010 -6.447224
v 0.283931 0.262010 -6.447224
v -0.283931 0.262010 -6.447224
v 0.542193 -0.211287 -7.070337
v -0.542193 -0.211287 -7.070337
v 0.542193 0.211287 -7.070337
v -0.542193 0.211287 -7.070337
v 0.400811 -0.103018 -8.421011
v -0.400811 -0.103018 -8.421011
v 0.400811 0.103018 -8.421011
v -0.400811 0.103018 -8.421011
v 0.053586 -0.025819 -9.796235
v -0.053586 -0.025819 -9.796235
v 0.053586 0.025819 -9.796235
v -0.053586 0.025819 -9.796235
v -0.159919 -0.170789 1.685471
v 0.159919 0.170789 1.685471
v -0.159919 0.170789 1.685471
v 0.159919 -0.170789 1.685471
v -0.166310 0.170789 -2.753042
v 0.166310 -0.170789 -2.753042
v -0.166310 -0.170789 -2.753042
v 0.166310 0.170789 -2.753042
vt -0.667626 0.953033
vt -0.667396 0.793613
vt 1.667622 0.800321
vt 1.667401 0.953033
vt 0.423465 0.789872
vt 0.423465 0.960128
vt 0.576535 0.960128
vt 0.576535 0.789872
vt 1.400829 0.789873
vt 1.400829 0.960128
vt -0.400829 0.960127
vt -0.400829 0.789872
vt 1.667626 0.796967
vt 1.667396 0.956387
vt -0.667622 0.949679
vt -0.667401 0.796967
vt -0.667514 0.789872
vt -0.667514 0.960128
vt 1.667514 0.960128
vt 1.667514 0.789872
vt 0.177009 0.273704
vt 0.172949 0.273704
vt 0.172949 0.265278
vt 0.177009 0.265278
vt -0.608763 0.789873
vt -0.608763 0.960128
vt 1.608763 0.960127
vt 1.608763 0.789872
vt -0.608641 0.959488
vt -0.608880 0.793698
vt 1.608645 0.793698
vt 1.608875 0.953117
vt 1.667514 0.789872
vt 1.667514 0.960128
vt -0.667514 0.960128
vt -0.667514 0.789872
vt -0.608880 0.956302
vt -0.608641 0.790513
vt 1.608875 0.796883
vt 1.608645 0.956302
vt 1.400704 0.788223
vt 1.400951 0.959189
vt -0.400708 0.959189
vt -0.400947 0.793399
vt 1.400704 0.788223
vt 1.400951 0.959189
vt -0.400708 0.959189
vt -0.400947 0.793399
vt -0.400830 0.789872
vt -0.400830 0.960128
vt 1.400830 0.960128
vt 1.400830 0.789872
vt 1.608763 0.789872
vt 1.608763 0.960128
vt -0.608763 0.960128
vt -0.608763 0.789872
vt 0.249609 0.437891
vt 0.249609 0.499609
vt 0.187891 0.499609
vt 0.187891 0.437891
vt 0.124609 0.437891
vt 0.124609 0.499609
vt 0.062891 0.499609
vt 0.062891 0.437891
vt 0.249609 0.499609
vt 0.187891 0.499609
vt 0.249609 0.437891
vt 0.062891 0.437891
vt 0.124609 0.437891
vt 0.124609 0.499609
vt 0.062891 0.499609
vt 0.062891 0.499609
vt 0.062891 0.437891
vt 0.124609 0.437891
vt 0.000391 0.499609
vt 0.062109 0.499609
vt 0.062109 0.437891
vt 0.000391 0.437891
vt 0.125391 0.437891
vt 0.187109 0.437891
vt 0.187109 0.499609
vt 0.125391 0.499609
vt 0.000391 0.499609
vt 0.062109 0.499609
vt 0.062109 0.437891
vt 0.000391 0.437891
vt 0.000391 0.499609
vt 0.000391 0.437891
vt 0.062109 0.437891
vt 0.124609 0.437891
vt 0.124609 0.499609
vt 0.062891 0.476484
vt 0.062891 0.461016
vt 0.000391 0.499609
vt 0.000391 0.437891
vt 0.062109 0.437891
vt 0.062109 0.499609
vt 0.124609 0.437891
vt 0.124609 0.499609
vt 0.062891 0.499609
vt 0.062891 0.437891
vt 0.125391 0.437891
vt 0.187109 0.437891
vt 0.187109 0.499609
vt 0.125391 0.499609
vt 0.125391 0.437891
vt 0.187109 0.437891
vt 0.160376 0.499609
vt 0.152124 0.499609
vt 0.000391 0.499609
vt 0.035376 0.437891
vt 0.027124 0.437891
vt 0.000391 0.499609
vt 0.000391 0.437891
vt 0.062109 0.461162
vt 0.062109 0.476630
vn 0.0000 1.0000 0.0000
vn 0.0000 0.0000 1.0000
vn -1.0000 0.0000 0.0014
vn 0.0000 -1.0000 0.0000
vn 1.0000 0.0000 0.0014
vn 0.0000 0.0000 -1.0000
vn -0.6166 0.0000 0.7873
vn -0.9238 0.0000 0.3829
vn 0.0000 -0.6945 0.7195
vn 0.0000 0.6945 0.7195
vn 0.6166 0.0000 0.7873
vn 0.0000 0.9968 -0.0799
vn 0.0000 -0.9967 -0.0811
vn 0.0000 0.9967 -0.0811
vn 0.9238 0.0000 0.3829
vn -0.9696 0.0000 -0.2448
vn 0.9946 0.0000 -0.1041
vn -0.9946 0.0000 -0.1041
vn 0.0000 -0.9968 -0.0799
vn 0.0000 -0.9984 -0.0560
vn 0.0000 0.9984 -0.0560
vn 0.9696 0.0000 -0.2448
usemtl spear_tileset
s off
f 26/1/1 27/2/1 7/3/1 3/4/1
f 4/5/2 3/6/2 7/7/2 8/8/2
f 31/9/3 29/10/3 5/11/3 6/12/3
f 25/13/4 28/14/4 4/15/4 8/16/4
f 28/17/5 26/18/5 3/19/5 4/20/5
f 22/21/6 24/22/6 23/23/6 21/24/6
f 30/25/5 32/26/5 26/27/5 28/28/5
f 31/29/4 30/30/4 28/31/4 25/32/4
f 8/33/3 7/34/3 27/35/3 25/36/3
f 32/37/1 29/38/1 27/39/1 26/40/1
f 1/41/1 5/42/1 29/43/1 32/44/1
f 6/45/4 2/46/4 30/47/4 31/48/4
f 2/49/5 1/50/5 32/51/5 30/52/5
f 25/53/3 27/54/3 29/55/3 31/56/3
usemtl spear_tileset.001
f 6/57/7 5/58/7 12/59/7 10/60/7
f 10/61/8 12/62/8 16/63/8 14/64/8
f 2/65/9 6/66/9 10/60/9 9/67/9
f 5/68/10 1/69/10 11/70/10 12/71/10
f 1/72/11 2/73/11 9/74/11 11/70/11
f 16/75/12 15/76/12 19/77/12 20/78/12
f 9/79/13 10/80/13 14/81/13 13/82/13
f 12/83/14 11/84/14 15/85/14 16/86/14
f 11/87/15 9/88/15 13/89/15 15/76/15
f 18/90/16 20/91/16 24/92/16 22/93/16
f 15/94/17 13/95/17 17/96/17 19/97/17
f 14/98/18 16/99/18 20/100/18 18/101/18
f 13/102/19 14/103/19 18/104/19 17/105/19
f 17/106/20 18/107/20 22/108/20 21/109/20
f 20/110/21 19/97/21 23/111/21 24/112/21
f 19/113/22 17/114/22 21/115/22 23/116/22
