# Blender v2.93.17 OBJ File: 'TennisRacket.blend'
# www.blender.org
mtllib TennisRacket.mtl
o Circle
v 0.370456 1.511252 -0.000000
v 0.641648 1.878151 -0.000000
v 0.740911 2.379344 0.000000
v 0.641648 2.880538 0.000000
v 0.370456 3.247437 0.000000
v 0.370456 1.511252 0.104204
v 0.641648 1.878151 0.104204
v 0.740911 2.379344 0.104204
v 0.641648 2.880538 0.104204
v 0.370456 3.247437 0.104204
v 0.268175 1.296133 -0.000000
v 0.268175 1.296133 0.104204
v 0.380436 1.319012 -0.000000
v 0.448197 1.407060 -0.000000
v 0.760559 1.825619 -0.000000
v 0.870911 2.379344 0.000000
v 0.760559 2.933070 0.000000
v 0.448197 3.351629 0.000000
v 0.380436 1.319012 0.104204
v 0.268777 1.342970 0.104204
v 0.268777 1.342970 -0.000000
v 0.222157 1.457492 0.104204
v 0.222157 1.457492 -0.000000
v 0.448197 1.407060 0.104204
v 0.760559 1.825619 0.104204
v 0.870911 2.379344 0.104204
v 0.760559 2.933070 0.104204
v 0.448197 3.351629 0.104204
v 0.216205 1.203973 -0.000000
v 0.216205 1.203973 0.104204
v 0.309033 1.195053 -0.000000
v 0.309033 1.195053 0.104204
v 0.103305 0.932259 -0.000000
v 0.103305 0.932259 0.104203
v 0.175986 0.914181 -0.000000
v 0.175986 0.914181 0.104203
v 0.094003 0.673721 -0.000000
v 0.094003 0.673721 0.104203
v 0.092066 0.583136 -0.000000
v 0.092066 0.583136 0.104203
v 0.092066 -0.395383 -0.000000
v 0.092066 -0.395383 0.104203
v 0.110764 -0.411547 -0.013260
v 0.110764 -0.411547 0.117206
v 0.110764 -0.551403 -0.013260
v 0.110764 -0.551403 0.117206
v 0.000000 3.381732 0.000000
v 0.000000 1.376957 -0.000000
v -0.370456 1.511252 -0.000000
v -0.641648 1.878151 -0.000000
v -0.740911 2.379344 0.000000
v -0.641648 2.880538 0.000000
v -0.370456 3.247437 0.000000
v 0.000000 3.381732 0.104204
v 0.000000 1.376957 0.104204
v -0.370456 1.511252 0.104204
v -0.641648 1.878151 0.104204
v -0.740911 2.379344 0.104204
v -0.641648 2.880538 0.104204
v -0.370456 3.247437 0.104204
v 0.000000 3.511731 0.000000
v -0.268175 1.296133 -0.000000
v -0.268175 1.296133 0.104204
v -0.380436 1.319012 -0.000000
v 0.000000 1.246961 -0.000000
v -0.448197 1.407060 -0.000000
v -0.760559 1.825619 -0.000000
v -0.870911 2.379344 0.000000
v -0.760559 2.933070 0.000000
v -0.448197 3.351629 0.000000
v 0.000000 3.511731 0.104204
v -0.380436 1.319012 0.104204
v -0.268777 1.342970 0.104204
v -0.268777 1.342970 -0.000000
v -0.222157 1.457492 0.104204
v -0.222157 1.457492 -0.000000
v 0.000000 1.246961 0.104204
v -0.448197 1.407060 0.104204
v -0.760559 1.825619 0.104204
v -0.870911 2.379344 0.104204
v -0.760559 2.933070 0.104204
v -0.448197 3.351629 0.104204
v -0.216205 1.203973 -0.000000
v -0.216205 1.203973 0.104204
v -0.309033 1.195053 -0.000000
v -0.309033 1.195053 0.104204
v -0.103305 0.932259 -0.000000
v -0.103305 0.932259 0.104203
v -0.175986 0.914181 -0.000000
v -0.175986 0.914181 0.104203
v 0.000000 0.675314 -0.000000
v 0.000000 0.675314 0.104203
v -0.094003 0.673721 -0.000000
v -0.094003 0.673721 0.104203
v 0.000000 0.584730 -0.000000
v 0.000000 0.584730 0.104203
v -0.092066 0.583136 -0.000000
v -0.092066 0.583136 0.104203
v 0.000000 -0.393789 -0.000000
v 0.000000 -0.393789 0.104203
v -0.092066 -0.395383 -0.000000
v -0.092066 -0.395383 0.104203
v 0.000000 -0.409953 -0.013260
v 0.000000 -0.409953 0.117206
v -0.110764 -0.411547 -0.013260
v -0.110764 -0.411547 0.117206
v 0.000000 -0.549809 -0.013260
v 0.000000 -0.549809 0.117206
v -0.110764 -0.551403 -0.013260
v -0.110764 -0.551403 0.117206
vt 0.000000 0.000000
vt 0.000000 0.000000
vt 0.000000 0.000000
vt 0.000000 0.000000
vt 0.000000 0.000000
vt 0.000000 0.000000
vt 0.000000 0.000000
vt 0.000000 0.000000
vt 0.000000 0.000000
vt 0.000000 0.000000
vt 0.000000 0.000000
vt 0.000000 0.000000
vt 0.000000 0.000000
vt 0.000000 0.000000
vt 0.000000 0.000000
vt 0.000000 0.000000
vt 0.000000 0.000000
vt 0.000000 0.000000
vt 0.000000 0.000000
vt 0.000000 0.000000
vt 0.000000 0.000000
vt 0.000000 0.000000
vt 0.000000 0.000000
vt 0.000000 0.000000
vt 0.000000 0.000000
vt 0.000000 0.000000
vt 0.000000 0.000000
vt 0.000000 0.000000
vt 0.000000 0.000000
vt 0.000000 0.000000
vt 0.000000 0.000000
vt 0.000000 0.000000
vt 0.000000 0.000000
vt 0.000000 0.000000
vt 0.000000 0.000000
vt 0.000000 0.000000
vt 0.000000 0.000000
vt 0.000000 0.000000
vt 0.000000 0.000000
vt 0.000000 0.000000
vt 0.000000 0.000000
vt 0.000000 0.000000
vt 0.000000 0.000000
vt 0.000000 0.000000
vt 0.000000 0.000000
vt 0.000000 0.000000
vt 0.000000 0.000000
vt 0.000000 0.000000
vt 0.000000 0.000000
vt 0.000000 0.000000
vt 0.000000 0.000000
vt 0.000000 0.000000
vt 0.000000 0.000000
vt 0.000000 0.000000
vt 0.000000 0.000000
vt 0.000000 0.000000
vt 0.000000 0.000000
vt 0.000000 0.000000
vt 0.000000 0.000000
vt 0.000000 0.000000
vt 0.000000 0.000000
vt 0.000000 0.000000
vt 0.000000 0.000000
vt 0.000000 0.000000
vt 0.000000 0.000000
vt 0.000000 0.000000
vt 0.000000 0.000000
vt 0.000000 0.000000
vt 0.000000 0.000000
vt 0.000000 0.000000
vt 0.000000 0.000000
vt 0.000000 0.000000
vt 0.000000 0.000000
vt 0.000000 0.000000
vt 0.000000 0.000000
vt 0.000000 0.000000
vt 0.000000 0.000000
vt 0.000000 0.000000
vt 0.000000 0.000000
vt 0.000000 0.000000
vt 0.000000 0.000000
vt 0.000000 0.000000
vt 0.000000 0.000000
vt 0.000000 0.000000
vt 0.000000 0.000000
vt 0.000000 0.000000
vt 0.000000 0.000000
vt 0.000000 0.000000
vt 0.000000 0.000000
vt 0.000000 0.000000
vt 0.000000 0.000000
vt 0.000000 0.000000
vt 0.000000 0.000000
vt 0.000000 0.000000
vt 0.000000 0.000000
vt 0.000000 0.000000
vt 0.000000 0.000000
vt 0.000000 0.000000
vt 0.000000 0.000000
vt 0.000000 0.000000
vt 0.000000 0.000000
vt 0.000000 0.000000
vt 0.000000 0.000000
vt 0.000000 0.000000
vt 0.000000 0.000000
vt 0.000000 0.000000
vt 0.000000 0.000000
vt 0.000000 0.000000
vt 0.000000 0.000000
vt 0.000000 0.000000
vn -0.9809 -0.1943 0.0000
vn -0.3408 0.9401 0.0000
vn -0.8042 -0.5944 0.0000
vn -0.8042 0.5944 0.0000
vn -0.3408 -0.9401 0.0000
vn -0.9809 0.1943 0.0000
vn 0.9807 0.1954 0.0000
vn 0.3364 -0.9417 0.0000
vn 0.8014 0.5981 0.0000
vn 0.8014 -0.5981 0.0000
vn 0.3364 0.9417 0.0000
vn 0.9807 -0.1954 0.0000
vn -0.0000 0.0000 1.0000
vn 0.7925 -0.6099 0.0000
vn 0.0000 0.0000 -1.0000
vn -0.8710 0.4912 0.0000
vn -0.9999 0.0129 0.0000
vn 0.8665 -0.4991 0.0000
vn -0.9278 0.3730 0.0000
vn -0.9235 0.3837 0.0000
vn 0.9037 -0.4281 0.0000
vn 0.9998 -0.0214 0.0000
vn 0.9465 -0.3227 0.0000
vn 1.0000 0.0000 0.0000
vn 0.0100 0.6377 -0.7703
vn 0.6540 0.7565 0.0000
vn 0.0099 0.6302 0.7764
vn -0.0144 -0.9999 0.0000
vn 0.9809 -0.1943 0.0000
vn 0.3408 0.9401 0.0000
vn 0.8042 -0.5944 0.0000
vn 0.8042 0.5944 0.0000
vn 0.3408 -0.9401 0.0000
vn 0.9809 0.1943 0.0000
vn -0.9807 0.1954 0.0000
vn -0.3364 -0.9417 0.0000
vn -0.8014 0.5981 0.0000
vn -0.8014 -0.5981 0.0000
vn -0.3364 0.9417 0.0000
vn -0.9807 -0.1954 0.0000
vn -0.7925 -0.6099 0.0000
vn 0.8710 0.4912 0.0000
vn 0.9999 0.0129 0.0000
vn -0.8665 -0.4991 0.0000
vn 0.9278 0.3730 0.0000
vn 0.9235 0.3837 0.0000
vn -0.9037 -0.4281 0.0000
vn -0.9998 -0.0214 0.0000
vn -0.9465 -0.3227 0.0000
vn -1.0000 0.0000 0.0000
vn -0.0100 0.6377 -0.7703
vn -0.6540 0.7565 0.0000
vn -0.0099 0.6302 0.7764
vn 0.0144 -0.9999 0.0000
usemtl None
s off
f 4/1/1 3/2/1 8/3/1 9/4/1
f 23/5/2 48/6/2 55/7/2 22/8/2
f 5/9/3 4/1/3 9/4/3 10/10/3
f 2/11/4 1/12/4 6/13/4 7/14/4
f 47/15/5 5/9/5 10/10/5 54/16/5
f 3/2/6 2/11/6 7/14/6 8/3/6
f 17/17/7 27/18/7 26/19/7 16/20/7
f 21/21/8 20/22/8 77/23/8 65/24/8
f 18/25/9 28/26/9 27/18/9 17/17/9
f 15/27/10 25/28/10 24/29/10 14/30/10
f 61/31/11 71/32/11 28/26/11 18/25/11
f 16/20/12 26/19/12 25/28/12 15/27/12
f 24/29/13 20/22/13 12/33/13 19/34/13
f 14/30/14 24/29/14 19/34/14 13/35/14
f 23/5/15 1/12/15 14/30/15 21/21/15
f 1/12/15 2/11/15 15/27/15 14/30/15
f 2/11/15 3/2/15 16/20/15 15/27/15
f 3/2/15 4/1/15 17/17/15 16/20/15
f 4/1/15 5/9/15 18/25/15 17/17/15
f 5/9/15 47/15/15 61/31/15 18/25/15
f 21/21/15 14/30/15 13/35/15 11/36/15
f 12/33/16 11/36/16 29/37/16 30/38/16
f 1/12/2 23/5/2 22/8/2 6/13/2
f 20/22/17 21/21/17 11/36/17 12/33/17
f 48/6/15 23/5/15 21/21/15 65/24/15
f 6/13/13 22/8/13 20/22/13 24/29/13
f 22/8/13 55/7/13 77/23/13 20/22/13
f 7/14/13 6/13/13 24/29/13 25/28/13
f 8/3/13 7/14/13 25/28/13 26/19/13
f 9/4/13 8/3/13 26/19/13 27/18/13
f 10/10/13 9/4/13 27/18/13 28/26/13
f 54/16/13 10/10/13 28/26/13 71/32/13
f 32/39/13 30/38/13 34/40/13 36/41/13
f 11/36/15 13/35/15 31/42/15 29/37/15
f 13/35/18 19/34/18 32/39/18 31/42/18
f 19/34/13 12/33/13 30/38/13 32/39/13
f 34/40/19 33/43/19 91/44/19 92/45/19
f 30/38/20 29/37/20 33/43/20 34/40/20
f 29/37/15 31/42/15 35/46/15 33/43/15
f 31/42/21 32/39/21 36/41/21 35/46/21
f 37/47/22 38/48/22 40/49/22 39/50/22
f 33/43/15 35/46/15 37/47/15 91/44/15
f 35/46/23 36/41/23 38/48/23 37/47/23
f 36/41/13 34/40/13 92/45/13 38/48/13
f 38/48/13 92/45/13 96/51/13 40/49/13
f 91/44/15 37/47/15 39/50/15 95/52/15
f 95/52/15 39/50/15 41/53/15 99/54/15
f 39/50/24 40/49/24 42/55/24 41/53/24
f 40/49/13 96/51/13 100/56/13 42/55/13
f 99/54/25 41/53/25 43/57/25 103/58/25
f 41/53/26 42/55/26 44/59/26 43/57/26
f 42/55/27 100/56/27 104/60/27 44/59/27
f 45/61/28 46/62/28 108/63/28 107/64/28
f 103/58/15 43/57/15 45/61/15 107/64/15
f 43/57/24 44/59/24 46/62/24 45/61/24
f 44/59/13 104/60/13 108/63/13 46/62/13
f 52/65/29 59/66/29 58/67/29 51/68/29
f 76/69/30 75/70/30 55/7/30 48/6/30
f 53/71/31 60/72/31 59/66/31 52/65/31
f 50/73/32 57/74/32 56/75/32 49/76/32
f 47/15/33 54/16/33 60/72/33 53/71/33
f 51/68/34 58/67/34 57/74/34 50/73/34
f 69/77/35 68/78/35 80/79/35 81/80/35
f 74/81/36 65/24/36 77/23/36 73/82/36
f 70/83/37 69/77/37 81/80/37 82/84/37
f 67/85/38 66/86/38 78/87/38 79/88/38
f 61/31/39 70/83/39 82/84/39 71/32/39
f 68/78/40 67/85/40 79/88/40 80/79/40
f 78/87/13 72/89/13 63/90/13 73/82/13
f 66/86/41 64/91/41 72/89/41 78/87/41
f 76/69/15 74/81/15 66/86/15 49/76/15
f 49/76/15 66/86/15 67/85/15 50/73/15
f 50/73/15 67/85/15 68/78/15 51/68/15
f 51/68/15 68/78/15 69/77/15 52/65/15
f 52/65/15 69/77/15 70/83/15 53/71/15
f 53/71/15 70/83/15 61/31/15 47/15/15
f 74/81/15 62/92/15 64/91/15 66/86/15
f 63/90/42 84/93/42 83/94/42 62/92/42
f 49/76/30 56/75/30 75/70/30 76/69/30
f 73/82/43 63/90/43 62/92/43 74/81/43
f 48/6/15 65/24/15 74/81/15 76/69/15
f 56/75/13 78/87/13 73/82/13 75/70/13
f 75/70/13 73/82/13 77/23/13 55/7/13
f 57/74/13 79/88/13 78/87/13 56/75/13
f 58/67/13 80/79/13 79/88/13 57/74/13
f 59/66/13 81/80/13 80/79/13 58/67/13
f 60/72/13 82/84/13 81/80/13 59/66/13
f 54/16/13 71/32/13 82/84/13 60/72/13
f 86/95/13 90/96/13 88/97/13 84/93/13
f 62/92/15 83/94/15 85/98/15 64/91/15
f 64/91/44 85/98/44 86/95/44 72/89/44
f 72/89/13 86/95/13 84/93/13 63/90/13
f 88/97/45 92/45/45 91/44/45 87/99/45
f 84/93/46 88/97/46 87/99/46 83/94/46
f 83/94/15 87/99/15 89/100/15 85/98/15
f 85/98/47 89/100/47 90/96/47 86/95/47
f 93/101/48 97/102/48 98/103/48 94/104/48
f 87/99/15 91/44/15 93/101/15 89/100/15
f 89/100/49 93/101/49 94/104/49 90/96/49
f 90/96/13 94/104/13 92/45/13 88/97/13
f 96/51/24 100/56/24 99/54/24 95/52/24
f 94/104/13 98/103/13 96/51/13 92/45/13
f 92/45/24 96/51/24 95/52/24 91/44/24
f 91/44/15 95/52/15 97/102/15 93/101/15
f 100/56/24 104/60/24 103/58/24 99/54/24
f 95/52/15 99/54/15 101/105/15 97/102/15
f 97/102/50 101/105/50 102/106/50 98/103/50
f 98/103/13 102/106/13 100/56/13 96/51/13
f 104/60/24 108/63/24 107/64/24 103/58/24
f 99/54/51 103/58/51 105/107/51 101/105/51
f 101/105/52 105/107/52 106/108/52 102/106/52
f 102/106/53 106/108/53 104/60/53 100/56/53
f 109/109/54 107/64/54 108/63/54 110/110/54
f 103/58/15 107/64/15 109/109/15 105/107/15
f 105/107/50 109/109/50 110/110/50 106/108/50
f 106/108/13 110/110/13 108/63/13 104/60/13
