# Blender v2.93.17 OBJ File: 'boomerang.blend'
# www.blender.org
mtllib boomerang.mtl
o Boomerang_Cube_Cube.002
v 0.465225 -0.060862 0.172333
v 0.464836 0.060862 0.172676
v 0.956511 0.060862 0.998387
v 0.957058 -0.060862 0.998310
v 0.882875 0.060862 1.280862
v 0.883036 -0.060862 1.282264
v 0.495784 -0.060862 0.631390
v 0.000000 0.060862 -0.191493
v 0.000000 0.060862 0.195505
v 0.495784 0.060862 0.631390
v 0.000000 -0.060862 0.142223
v 0.000000 -0.060862 -0.242974
v -0.465225 -0.060862 0.172333
v -0.957058 -0.060862 0.998310
v -0.956511 0.060862 0.998387
v -0.464836 0.060862 0.172676
v -0.883036 -0.060862 1.282264
v -0.882875 0.060862 1.280862
v -0.495784 -0.060862 0.631390
v -0.495784 0.060862 0.631390
v 0.495784 0.060862 0.145441
v 1.000000 0.060862 0.992213
v 0.895689 0.060862 1.392360
v 0.000000 0.060862 -0.242974
v -0.495784 0.060862 0.145441
v 0.000000 0.060862 0.141545
v -0.528171 0.060862 0.605904
v -1.000000 0.060862 0.992213
v -0.895689 0.060862 1.392360
v 0.528171 0.060862 0.605904
v 0.495784 -0.060862 0.145441
v 1.000000 -0.060862 0.992213
v 0.895689 -0.060862 1.392360
v 0.527764 -0.060862 0.606224
v 0.000000 -0.060862 0.195505
v 0.000000 -0.060862 -0.192140
v -0.495784 -0.060862 0.145441
v -1.000000 -0.060862 0.992213
v -0.895689 -0.060862 1.392360
v -0.527764 -0.060862 0.606224
vt 0.121529 0.318034
vt 0.138042 0.318034
vt 0.138042 0.449459
vt 0.121529 0.449459
vt 0.722595 0.527338
vt 0.757985 0.527338
vt 0.757985 0.646778
vt 0.722595 0.646778
vt 0.113106 0.693547
vt 0.241462 0.617117
vt 0.285588 0.628620
vt 0.180532 0.683828
vt 0.187601 0.812686
vt 0.131009 0.740451
vt 0.182763 0.740451
vt 0.254924 0.822528
vt 0.651816 0.697564
vt 0.616426 0.697564
vt 0.616426 0.527338
vt 0.651816 0.527338
vt 0.651816 0.945863
vt 0.616426 0.945863
vt 0.315915 0.889092
vt 0.359811 0.877649
vt 0.056468 0.765842
vt 0.108427 0.765842
vt 0.121529 0.234045
vt 0.138042 0.234045
vt 0.138042 0.102620
vt 0.138042 0.234045
vt 0.121529 0.234045
vt 0.121529 0.102620
vt 0.722595 0.527338
vt 0.722595 0.646778
vt 0.687206 0.646778
vt 0.687206 0.527338
vt 0.113106 0.838137
vt 0.180532 0.847856
vt 0.285588 0.903065
vt 0.241462 0.914567
vt 0.187601 0.668217
vt 0.254924 0.658375
vt 0.651816 0.697564
vt 0.687206 0.527338
vt 0.687206 0.697564
vt 0.651816 0.945863
vt 0.687206 0.945863
vt 0.315915 0.591811
vt 0.359811 0.603254
vt 0.138042 0.018630
vt 0.121529 0.018630
vt 0.768867 0.350790
vt 0.919765 0.440643
vt 0.918636 0.448591
vt 0.763890 0.356446
vt 0.971386 0.427186
vt 0.991762 0.429528
vt 0.702316 0.265842
vt 0.692908 0.265842
vt 0.768867 0.180895
vt 0.763890 0.175239
vt 0.763178 0.265842
vt 0.848039 0.169320
vt 0.852696 0.175239
vt 0.773039 0.265842
vt 0.919765 0.091042
vt 0.918636 0.083094
vt 0.971386 0.104499
vt 0.991762 0.102157
vt 0.848039 0.362365
vt 0.852696 0.356446
vt 0.763154 0.095677
vt 0.611238 0.186136
vt 0.606292 0.180516
vt 0.762033 0.087779
vt 0.815380 0.109291
vt 0.835629 0.106964
vt 0.605700 0.271702
vt 0.691040 0.174634
vt 0.695669 0.180516
vt 0.615500 0.271702
vt 0.544203 0.271702
vt 0.611238 0.357267
vt 0.606292 0.362888
vt 0.534853 0.271702
vt 0.763154 0.447727
vt 0.762033 0.455625
vt 0.815380 0.434113
vt 0.835629 0.436440
vt 0.691040 0.368770
vt 0.695669 0.362888
vn 0.8592 0.0000 -0.5116
vn 0.9677 0.0000 0.2523
vn -0.0000 -1.0000 -0.0000
vn 0.0000 1.0000 0.0000
vn -0.6603 -0.0000 0.7510
vn -0.8852 0.0000 0.4652
vn 0.6167 0.0000 -0.7872
vn -0.8592 0.0000 -0.5116
vn -0.9677 0.0000 0.2523
vn 0.6603 -0.0000 0.7510
vn 0.8852 0.0000 0.4652
vn -0.6167 0.0000 -0.7872
usemtl None
s 1
f 31/1/1 21/2/1 22/3/1 32/4/1
f 32/5/2 22/6/2 23/7/2 33/8/2
f 1/9/3 4/10/3 6/11/3 34/12/3
f 2/13/4 8/14/4 26/15/4 30/16/4
f 7/17/5 10/18/5 9/19/5 35/20/5
f 33/21/6 23/22/6 10/18/6 7/17/6
f 3/23/4 2/13/4 30/16/4 5/24/4
f 36/25/3 1/9/3 34/12/3 11/26/3
f 12/27/7 24/28/7 21/2/7 31/1/7
f 37/29/8 38/30/8 28/31/8 25/32/8
f 38/33/9 39/34/9 29/35/9 28/36/9
f 13/37/3 40/38/3 17/39/3 14/40/3
f 16/41/4 27/42/4 26/15/4 8/14/4
f 19/43/10 35/20/10 9/44/10 20/45/10
f 39/46/11 19/43/11 20/45/11 29/47/11
f 15/48/4 18/49/4 27/42/4 16/41/4
f 36/25/3 11/26/3 40/38/3 13/37/3
f 12/50/12 37/29/12 25/32/12 24/51/12
f 2/52/4 3/53/4 22/54/4 21/55/4
f 3/53/4 5/56/4 23/57/4 22/54/4
f 8/58/4 2/52/4 21/55/4 24/59/4
f 16/60/4 8/58/4 24/59/4 25/61/4
f 26/62/4 27/63/4 20/64/4 9/65/4
f 15/66/4 16/60/4 25/61/4 28/67/4
f 18/68/4 15/66/4 28/67/4 29/69/4
f 5/56/4 30/70/4 10/71/4 23/57/4
f 27/63/4 18/68/4 29/69/4 20/64/4
f 30/70/4 26/62/4 9/65/4 10/71/4
f 4/72/3 1/73/3 31/74/3 32/75/3
f 6/76/3 4/72/3 32/75/3 33/77/3
f 11/78/3 34/79/3 7/80/3 35/81/3
f 36/82/3 13/83/3 37/84/3 12/85/3
f 13/83/3 14/86/3 38/87/3 37/84/3
f 14/86/3 17/88/3 39/89/3 38/87/3
f 40/90/3 11/78/3 35/81/3 19/91/3
f 1/73/3 36/82/3 12/85/3 31/74/3
f 34/79/3 6/76/3 33/77/3 7/80/3
f 17/88/3 40/90/3 19/91/3 39/89/3
