# Blender v2.93.17 OBJ File: 'CubeGameTileset.blend'
# www.blender.org
mtllib WallTile.mtl
o Wall_Cube.002
v -1.000000 -0.500000 -0.500000
v -1.000000 1.000000 -0.500000
v -1.000000 -0.500000 -1.000000
v -1.000000 1.000000 -1.000000
v 1.000000 -0.500000 -0.500000
v 1.000000 1.000000 -0.500000
v 1.000000 -0.500000 -1.000000
v 1.000000 1.000000 -1.000000
vt 0.375000 0.500000
vt 0.375000 0.875000
vt 0.250000 0.875000
vt 0.250000 0.500000
vt 0.875000 0.500000
vt 0.500000 0.500000
vt 0.500000 0.000000
vt 0.875000 0.000000
vt 0.250000 0.500000
vt 0.250000 0.875000
vt 0.125000 0.875000
vt 0.125000 0.500000
vt 0.500000 0.125000
vt 0.500000 0.500000
vt 0.000000 0.500000
vt 0.000000 0.125000
vt 0.000000 0.000000
vt 0.500000 0.000000
vt 0.125000 0.500000
vt 0.125000 1.000000
vt 0.000000 1.000000
vt 0.000000 0.500000
vn -1.0000 0.0000 0.0000
vn 0.0000 0.0000 -1.0000
vn 1.0000 0.0000 0.0000
vn 0.0000 0.0000 1.0000
vn 0.0000 -1.0000 0.0000
vn 0.0000 1.0000 0.0000
usemtl None
s off
f 1/1/1 2/2/1 4/3/1 3/4/1
f 3/5/2 4/6/2 8/7/2 7/8/2
f 7/9/3 8/10/3 6/11/3 5/12/3
f 5/13/4 6/14/4 2/15/4 1/16/4
f 3/17/5 7/18/5 5/13/5 1/16/5
f 8/19/6 4/20/6 2/21/6 6/22/6
